<svg width="512" height="512" viewBox="0 0 512 512" fill="none" xmlns="http://www.w3.org/2000/svg">
<path d="M386.399 35.508C217.06-64.061 1.885 57.55.012 253.882c-1.828 191.716 201.063 315.545 370.02 231.163L185.56 213.636v167.997c0 18.614-35.619 18.614-35.619 0V156.421c0-14.776 27.448-20.043 35.619-3.158L404.223 369.749c61.24-42.941 92.507-99.681 92.507-99.681.102-32.218-5.914-101.494-110.331-234.56z" fill="#000"/>
<path d="M508.12 225.043c0-2.177-1.72-3.993-3.777-4.089L446.032 213a4.339 4.339 0 00-4.608 4.014v.61c0 2.177 1.72 4.014 3.777 4.089l58.311 7.954a4.339 4.339 0 004.608-4.014v-.61z" fill="#000"/>
</svg>